name C:/MyDriveSym/Projects/mobilecap/Data\Session20210813_0002\mocap\ForceDataProcessed\walkingTS4_forces.mot
datacolumns 19
datarows 17
range 0.45950000 0.46750000
endheader 
time	R_ground_force_vx	R_ground_force_vy	R_ground_force_vz	R_ground_force_px	R_ground_force_py	R_ground_force_pz	R_ground_torque_x	R_ground_torque_y	R_ground_torque_z	L_ground_force_vx	L_ground_force_vy	L_ground_force_vz	L_ground_force_px	L_ground_force_py	L_ground_force_pz	L_ground_torque_x	L_ground_torque_y	L_ground_torque_z	
          0.45950000	        -17.91744400	        726.58305700	        -15.09131400	          0.21589100	          0.00600000	         -0.17478300	          0.00000000	         -2.49870400	          0.00000000	          0.00000000	          0.00000000	          0.00000000	          0.70866800	          0.00000000	         -0.24884000	          0.00000000	          0.00000000	          0.00000000	
          0.46000000	        -17.73486500	        726.63783300	        -15.10440800	          0.21594100	          0.00600000	         -0.17480000	          0.00000000	         -2.51276900	          0.00000000	          0.00000000	          0.00000000	          0.00000000	          0.70866800	          0.00000000	         -0.24884000	          0.00000000	          0.00000000	          0.00000000	
          0.46050000	        -17.55200100	        726.69258100	        -15.11721600	          0.21599200	          0.00600000	         -0.17481600	          0.00000000	         -2.52685800	          0.00000000	          0.00000000	          0.00000000	          0.00000000	          0.70866800	          0.00000000	         -0.24884000	          0.00000000	          0.00000000	          0.00000000	
          0.46100000	        -17.36885500	        726.74731500	        -15.12974100	          0.21604200	          0.00600000	         -0.17483300	          0.00000000	         -2.54097100	          0.00000000	          0.00000000	          0.00000000	          0.00000000	          0.70866800	          0.00000000	         -0.24884000	          0.00000000	          0.00000000	          0.00000000	
          0.46150000	        -17.18542800	        726.80205000	        -15.14199000	          0.21609200	          0.00600000	         -0.17485100	          0.00000000	         -2.55510700	          0.00000000	          0.00000000	          0.00000000	          0.00000000	          0.70866800	          0.00000000	         -0.24884000	          0.00000000	          0.00000000	          0.00000000	
          0.46200000	        -17.00172400	        726.85679700	        -15.15396700	          0.21614200	          0.00600000	         -0.17486800	          0.00000000	         -2.56926700	          0.00000000	          0.00000000	          0.00000000	          0.00000000	          0.70866800	          0.00000000	         -0.24884000	          0.00000000	          0.00000000	          0.00000000	
          0.46250000	        -16.81774400	        726.91157300	        -15.16567500	          0.21619200	          0.00600000	         -0.17488600	          0.00000000	         -2.58345000	          0.00000000	          0.00000000	          0.00000000	          0.00000000	          0.70866800	          0.00000000	         -0.24884000	          0.00000000	          0.00000000	          0.00000000	
          0.46300000	        -16.63349100	        726.96638900	        -15.17712100	          0.21624200	          0.00600000	         -0.17490400	          0.00000000	         -2.59765600	          0.00000000	          0.00000000	          0.00000000	          0.00000000	          0.70866800	          0.00000000	         -0.24884000	          0.00000000	          0.00000000	          0.00000000	
          0.46350000	        -16.44896600	        727.02126000	        -15.18830900	          0.21629200	          0.00600000	         -0.17492200	          0.00000000	         -2.61188500	          0.00000000	          0.00000000	          0.00000000	          0.00000000	          0.70866800	          0.00000000	         -0.24884000	          0.00000000	          0.00000000	          0.00000000	
          0.46400000	        -16.26417300	        727.07620000	        -15.19924400	          0.21634200	          0.00600000	         -0.17494000	          0.00000000	         -2.62613700	          0.00000000	          0.00000000	          0.00000000	          0.00000000	          0.70866800	          0.00000000	         -0.24884000	          0.00000000	          0.00000000	          0.00000000	
          0.46450000	        -16.07911300	        727.13122200	        -15.20993100	          0.21639200	          0.00600000	         -0.17495900	          0.00000000	         -2.64041000	          0.00000000	          0.00000000	          0.00000000	          0.00000000	          0.70866800	          0.00000000	         -0.24884000	          0.00000000	          0.00000000	          0.00000000	
          0.46500000	        -15.89379000	        727.18634100	        -15.22037600	          0.21644200	          0.00600000	         -0.17497800	          0.00000000	         -2.65470500	          0.00000000	          0.00000000	          0.00000000	          0.00000000	          0.70866800	          0.00000000	         -0.24884000	          0.00000000	          0.00000000	          0.00000000	
          0.46550000	        -15.70820500	        727.24157000	        -15.23058300	          0.21649300	          0.00600000	         -0.17499700	          0.00000000	         -2.66902200	          0.00000000	          0.00000000	          0.00000000	          0.00000000	          0.70866800	          0.00000000	         -0.24884000	          0.00000000	          0.00000000	          0.00000000	
          0.46600000	        -15.52236200	        727.29692300	        -15.24055900	          0.21654300	          0.00600000	         -0.17501700	          0.00000000	         -2.68336100	          0.00000000	          0.00000000	          0.00000000	          0.00000000	          0.70866800	          0.00000000	         -0.24884000	          0.00000000	          0.00000000	          0.00000000	
          0.46650000	        -15.33626200	        727.35241500	        -15.25030800	          0.21659300	          0.00600000	         -0.17503600	          0.00000000	         -2.69772000	          0.00000000	          0.00000000	          0.00000000	          0.00000000	          0.70866800	          0.00000000	         -0.24884000	          0.00000000	          0.00000000	          0.00000000	
          0.46700000	        -15.14990900	        727.40805800	        -15.25983600	          0.21664300	          0.00600000	         -0.17505600	          0.00000000	         -2.71209900	          0.00000000	          0.00000000	          0.00000000	          0.00000000	          0.70866800	          0.00000000	         -0.24884000	          0.00000000	          0.00000000	          0.00000000	
          0.46750000	        -14.96330600	        727.46386700	        -15.26915000	          0.21669300	          0.00600000	         -0.17507600	          0.00000000	         -2.72650000	          0.00000000	          0.00000000	          0.00000000	          0.00000000	          0.70866800	          0.00000000	         -0.24884000	          0.00000000	          0.00000000	          0.00000000	
